<svg enable-background="new 0 0 512 512" height="512" viewBox="0 0 512 512" width="512" xmlns="http://www.w3.org/2000/svg"><path d="m419.428 8.314c-2.537-5.094-7.738-8.314-13.428-8.314h-28.078l-15.552 16.958-15.552-16.958h-37.814l-15.059 16.958-15.059-16.958h-45.773l-15.059 16.958-15.058-16.958h-37.814l-15.552 16.958-15.552-16.958h-28.078c-5.69 0-10.891 3.22-13.428 8.314-40.856 82.054-61.572 165.387-61.572 247.686s20.716 165.632 61.572 247.686c2.537 5.094 7.738 8.314 13.428 8.314h28.078l15.552-16.958 15.552 16.958h37.814l15.059-16.958 15.059 16.958h45.773l15.059-16.958 15.058 16.958h37.814l15.552-16.958 15.552 16.958h28.078c5.69 0 10.891-3.22 13.428-8.314 40.856-82.054 61.572-165.387 61.572-247.686s-20.716-165.632-61.572-247.686z" fill="#ffb655"/><path d="m419.428 503.686c40.856-82.054 61.572-165.387 61.572-247.686s-20.716-165.632-61.572-247.686c-2.537-5.094-7.738-8.314-13.428-8.314h-28.078l-15.552 16.958-15.552-16.958h-37.814l-15.059 16.958-15.059-16.958h-22.886v512h22.886l15.059-16.958 15.059 16.958h37.814l15.552-16.958 15.552 16.958h28.078c5.69 0 10.891-3.22 13.428-8.314z" fill="#e68a44"/><path d="m377.922 0h-31.104c47.238 169.875 47.238 342.125 0 512h31.104c22.899-84.978 34.507-171.054 34.507-256s-11.608-171.022-34.507-256z" fill="#cb671b"/><path d="m165.182 0h-31.104c-22.899 84.978-34.507 171.054-34.507 256s11.608 171.022 34.507 256h31.104c-47.238-169.875-47.238-342.125 0-512z" fill="#e68a44"/><path d="m309.004 0h-30.118c15.399 169.893 15.399 342.107 0 512h30.118c15.238-169.909 15.238-342.091 0-512z" fill="#cb671b"/><path d="m233.114 0h-30.118c-15.238 169.909-15.238 342.091 0 512h30.118c-15.4-169.893-15.4-342.107 0-512z" fill="#e68a44"/><g fill="#552ea6"><path d="m476 161h-440c-9.966 0-17.161-9.539-14.423-19.121l20-70c1.84-6.439 7.726-10.879 14.423-10.879h400c6.697 0 12.583 4.44 14.423 10.879l20 70c2.737 9.582-4.458 19.121-14.423 19.121z"/><path d="m456 451h-400c-6.697 0-12.583-4.44-14.423-10.879l-20-70c-2.737-9.582 4.458-19.121 14.423-19.121h440c9.966 0 17.161 9.539 14.423 19.121l-20 70c-1.84 6.439-7.726 10.879-14.423 10.879z"/><path d="m470.423 71.879c-1.84-6.439-7.726-10.879-14.423-10.879h-200v100h220c9.966 0 17.161-9.539 14.423-19.121z"/><path d="m476 351h-220v100h200c6.697 0 12.583-4.44 14.423-10.879l20-70c2.737-9.582-4.457-19.121-14.423-19.121z"/></g></svg>